<svg height="678" version="1.1" width="1148" xmlns="http://www.w3.org/2000/svg" style="overflow: hidden; position: relative; top: -0.583333px;"><desc style="-webkit-tap-highlight-color: rgba(0, 0, 0, 0);">Created with Raphaël 2.0.1</desc><defs style="-webkit-tap-highlight-color: rgba(0, 0, 0, 0);"></defs><rect x="0" y="0" width="1148" height="678" r="0" rx="0" ry="0" fill="#777777" stroke="none" style="-webkit-tap-highlight-color: rgba(0, 0, 0, 0);"></rect><ellipse cx="391" cy="284" rx="130" ry="12870" fill="none" stroke="#999999" transform="matrix(1,0,0,1,0,0)" stroke-width="1" opacity="0.5" style="-webkit-tap-highlight-color: rgba(0, 0, 0, 0); opacity: 0.5;"></ellipse><ellipse cx="749" cy="410" rx="127" ry="12573" fill="none" stroke="#999999" transform="matrix(0.9808,0.1951,-0.1951,0.9808,94.3789,-138.2446)" stroke-width="1" opacity="0.5" style="-webkit-tap-highlight-color: rgba(0, 0, 0, 0); opacity: 0.5;"></ellipse><ellipse cx="467" cy="240" rx="124" ry="12276" fill="none" stroke="#999999" transform="matrix(0.9239,0.3827,-0.3827,0.9239,127.3923,-160.4443)" stroke-width="1" opacity="0.5" style="-webkit-tap-highlight-color: rgba(0, 0, 0, 0); opacity: 0.5;"></ellipse><ellipse cx="460" cy="265" rx="130" ry="12870" fill="none" stroke="#999999" transform="matrix(0.8315,0.5556,-0.5556,0.8315,224.7501,-210.9018)" stroke-width="1" opacity="0.5" style="-webkit-tap-highlight-color: rgba(0, 0, 0, 0); opacity: 0.5;"></ellipse><ellipse cx="815" cy="401" rx="124" ry="12276" fill="none" stroke="#999999" transform="matrix(0.7071,0.7071,-0.7071,0.7071,522.2578,-458.8418)" stroke-width="1" opacity="0.5" style="-webkit-tap-highlight-color: rgba(0, 0, 0, 0); opacity: 0.5;"></ellipse><ellipse cx="641" cy="285" rx="125" ry="12375" fill="none" stroke="#999999" transform="matrix(0.5556,0.8315,-0.8315,0.5556,521.8483,-406.3095)" stroke-width="1" opacity="0.5" style="-webkit-tap-highlight-color: rgba(0, 0, 0, 0); opacity: 0.5;"></ellipse><ellipse cx="382" cy="300" rx="126" ry="12474" fill="none" stroke="#999999" transform="matrix(0.3827,0.9239,-0.9239,0.3827,512.9788,-167.727)" stroke-width="1" opacity="0.5" style="-webkit-tap-highlight-color: rgba(0, 0, 0, 0); opacity: 0.5;"></ellipse><ellipse cx="717" cy="253" rx="121" ry="11979" fill="none" stroke="#999999" transform="matrix(0.1951,0.9808,-0.9808,0.1951,825.2589,-499.5809)" stroke-width="1" opacity="0.5" style="-webkit-tap-highlight-color: rgba(0, 0, 0, 0); opacity: 0.5;"></ellipse><ellipse cx="393" cy="397" rx="121" ry="11979" fill="none" stroke="#999999" transform="matrix(0,1,-1,0,790,4)" stroke-width="1" opacity="0.5" style="-webkit-tap-highlight-color: rgba(0, 0, 0, 0); opacity: 0.5;"></ellipse><ellipse cx="408" cy="396" rx="121" ry="11979" fill="none" stroke="#999999" transform="matrix(-0.1951,0.9808,-0.9808,-0.1951,875.9878,73.0954)" stroke-width="1" opacity="0.5" style="-webkit-tap-highlight-color: rgba(0, 0, 0, 0); opacity: 0.5;"></ellipse><ellipse cx="475" cy="413" rx="122" ry="12078" fill="none" stroke="#999999" transform="matrix(-0.3827,0.9239,-0.9239,-0.3827,1038.3369,132.2055)" stroke-width="1" opacity="0.5" style="-webkit-tap-highlight-color: rgba(0, 0, 0, 0); opacity: 0.5;"></ellipse><ellipse cx="826" cy="409" rx="130" ry="12870" fill="none" stroke="#999999" transform="matrix(-0.5556,0.8315,-0.8315,-0.5556,1624.9721,-50.5657)" stroke-width="1" opacity="0.5" style="-webkit-tap-highlight-color: rgba(0, 0, 0, 0); opacity: 0.5;"></ellipse><ellipse cx="509" cy="425" rx="128" ry="12672" fill="none" stroke="#999999" transform="matrix(-0.7071,0.7071,-0.7071,-0.7071,1169.4377,365.603)" stroke-width="1" opacity="0.5" style="-webkit-tap-highlight-color: rgba(0, 0, 0, 0); opacity: 0.5;"></ellipse><ellipse cx="426" cy="328" rx="126" ry="12474" fill="none" stroke="#999999" transform="matrix(-0.8315,0.5556,-0.5556,-0.8315,962.4331,364.0491)" stroke-width="1" opacity="0.5" style="-webkit-tap-highlight-color: rgba(0, 0, 0, 0); opacity: 0.5;"></ellipse><ellipse cx="698" cy="359" rx="121" ry="11979" fill="none" stroke="#999999" transform="matrix(-0.9239,0.3827,-0.3827,-0.9239,1480.2513,423.5597)" stroke-width="1" opacity="0.5" style="-webkit-tap-highlight-color: rgba(0, 0, 0, 0); opacity: 0.5;"></ellipse><ellipse cx="585" cy="300" rx="125" ry="12375" fill="none" stroke="#999999" transform="matrix(-0.9808,0.1951,-0.1951,-0.9808,1217.2865,480.1077)" stroke-width="1" opacity="0.5" style="-webkit-tap-highlight-color: rgba(0, 0, 0, 0); opacity: 0.5;"></ellipse><ellipse cx="374" cy="365" rx="120" ry="11880" fill="none" stroke="#999999" transform="matrix(-1,0,0,-1,748,730)" stroke-width="1" opacity="0.5" style="-webkit-tap-highlight-color: rgba(0, 0, 0, 0); opacity: 0.5;"></ellipse><ellipse cx="457" cy="393" rx="126" ry="12474" fill="none" stroke="#999999" transform="matrix(-0.9808,-0.1951,0.1951,-0.9808,828.5484,867.6049)" stroke-width="1" opacity="0.5" style="-webkit-tap-highlight-color: rgba(0, 0, 0, 0); opacity: 0.5;"></ellipse><ellipse cx="496" cy="303" rx="124" ry="12276" fill="none" stroke="#999999" transform="matrix(-0.9239,-0.3827,0.3827,-0.9239,838.2912,772.7465)" stroke-width="1" opacity="0.5" style="-webkit-tap-highlight-color: rgba(0, 0, 0, 0); opacity: 0.5;"></ellipse><ellipse cx="558" cy="290" rx="123" ry="12177" fill="none" stroke="#999999" transform="matrix(-0.8315,-0.5556,0.5556,-0.8315,860.8447,841.1344)" stroke-width="1" opacity="0.5" style="-webkit-tap-highlight-color: rgba(0, 0, 0, 0); opacity: 0.5;"></ellipse><ellipse cx="771" cy="350" rx="124" ry="12276" fill="none" stroke="#999999" transform="matrix(-0.7071,-0.7071,0.7071,-0.7071,1068.692,1142.6667)" stroke-width="1" opacity="0.5" style="-webkit-tap-highlight-color: rgba(0, 0, 0, 0); opacity: 0.5;"></ellipse><ellipse cx="487" cy="332" rx="126" ry="12474" fill="none" stroke="#999999" transform="matrix(-0.5556,-0.8315,0.8315,-0.5556,481.5148,921.375)" stroke-width="1" opacity="0.5" style="-webkit-tap-highlight-color: rgba(0, 0, 0, 0); opacity: 0.5;"></ellipse><ellipse cx="423" cy="291" rx="122" ry="12078" fill="none" stroke="#999999" transform="matrix(-0.3827,-0.9239,0.9239,-0.3827,316.0261,793.1619)" stroke-width="1" opacity="0.5" style="-webkit-tap-highlight-color: rgba(0, 0, 0, 0); opacity: 0.5;"></ellipse><ellipse cx="332" cy="345" rx="125" ry="12375" fill="none" stroke="#999999" transform="matrix(-0.1951,-0.9808,0.9808,-0.1951,58.3991,737.9269)" stroke-width="1" opacity="0.5" style="-webkit-tap-highlight-color: rgba(0, 0, 0, 0); opacity: 0.5;"></ellipse><ellipse cx="760" cy="307" rx="130" ry="12870" fill="none" stroke="#999999" transform="matrix(0,-1,1,0,453,1067)" stroke-width="1" opacity="0.5" style="-webkit-tap-highlight-color: rgba(0, 0, 0, 0); opacity: 0.5;"></ellipse><ellipse cx="588" cy="386" rx="129" ry="12771" fill="none" stroke="#999999" transform="matrix(0.1951,-0.9808,0.9808,0.1951,94.7038,887.3969)" stroke-width="1" opacity="0.5" style="-webkit-tap-highlight-color: rgba(0, 0, 0, 0); opacity: 0.5;"></ellipse><ellipse cx="532" cy="274" rx="127" ry="12573" fill="none" stroke="#999999" transform="matrix(0.3827,-0.9239,0.9239,0.3827,75.2694,660.6487)" stroke-width="1" opacity="0.5" style="-webkit-tap-highlight-color: rgba(0, 0, 0, 0); opacity: 0.5;"></ellipse><ellipse cx="466" cy="387" rx="120" ry="11880" fill="none" stroke="#999999" transform="matrix(0.5556,-0.8315,0.8315,0.5556,-114.6745,559.4592)" stroke-width="1" opacity="0.5" style="-webkit-tap-highlight-color: rgba(0, 0, 0, 0); opacity: 0.5;"></ellipse><ellipse cx="672" cy="310" rx="124" ry="12276" fill="none" stroke="#999999" transform="matrix(0.7071,-0.7071,0.7071,0.7071,-22.3789,565.9727)" stroke-width="1" opacity="0.5" style="-webkit-tap-highlight-color: rgba(0, 0, 0, 0); opacity: 0.5;"></ellipse><ellipse cx="680" cy="267" rx="122" ry="12078" fill="none" stroke="#999999" transform="matrix(0.8315,-0.5556,0.5556,0.8315,-33.7366,422.7854)" stroke-width="1" opacity="0.5" style="-webkit-tap-highlight-color: rgba(0, 0, 0, 0); opacity: 0.5;"></ellipse><ellipse cx="349" cy="406" rx="125" ry="12375" fill="none" stroke="#999999" transform="matrix(0.9239,-0.3827,0.3827,0.9239,-128.8034,164.4614)" stroke-width="1" opacity="0.5" style="-webkit-tap-highlight-color: rgba(0, 0, 0, 0); opacity: 0.5;"></ellipse><ellipse cx="804" cy="244" rx="127" ry="12573" fill="none" stroke="#999999" transform="matrix(0.9808,-0.1951,0.1951,0.9808,-32.1534,161.541)" stroke-width="1" opacity="0.5" style="-webkit-tap-highlight-color: rgba(0, 0, 0, 0); opacity: 0.5;"></ellipse></svg>